# xmcd
#
# Track frame offsets:
#	49007
#	74934
#	91519
#	102232
#	120329
#	130857
#	142709
#	156787
#	168357
#	181807
#	204562
#	217347
#
# Disc length: 3108 seconds
#
# Revision: 0
# Processed by: cddbd v1.5.1PL0 Copyright (c) Steve Scherf et al.
# Submitted via: dBpowerAMP V4.0
#
DISCID=b109970c
DTITLE=Renato Teixeira - Sonhos Guaranys
DYEAR=1900
DGENRE=
TTITLE0=Siriema do mato grosso
TTITLE1=Sonhos Guaranys
TTITLE2=Pe de Cedro
TTITLE3=Mestica
TTITLE4=Meu veneno
TTITLE5=Lembrancas do Mato grosso
TTITLE6=Chalana
TTITLE7=Trem do Pantanal
TTITLE8=A matogrossense
TTITLE9=Flor matogrossense
TTITLE10=mato grosso do sul meu amor
TTITLE11=E de lei
EXTD=
EXTT0=
EXTT1=
EXTT2=
EXTT3=
EXTT4=
EXTT5=
EXTT6=
EXTT7=
EXTT8=
EXTT9=
EXTT10=
EXTT11=
PLAYORDER=
